<svg xmlns="http://www.w3.org/2000/svg" viewBox="0 0 32 32"><title>36-Ticket</title><g id="_36-Ticket" data-name="36-Ticket"><path d="M27,29H5a5.006,5.006,0,0,1-5-5,1.006,1.006,0,0,1,.168-.555L2,20.7V14.236L.105,10.447A1,1,0,0,1,0,10,5.006,5.006,0,0,1,5,5H27a5.006,5.006,0,0,1,5,5,1,1,0,0,1-.105.447L30,14.236V20.7l1.832,2.748A1.006,1.006,0,0,1,32,24,5.006,5.006,0,0,1,27,29ZM2.014,24.283A3,3,0,0,0,5,27H27a3,3,0,0,0,2.986-2.717l-1.818-2.728A1.006,1.006,0,0,1,28,21V14a1,1,0,0,1,.105-.447L29.992,9.78A3,3,0,0,0,27,7H5A3,3,0,0,0,2.008,9.78L3.9,13.553A1,1,0,0,1,4,14v7a1.006,1.006,0,0,1-.168.555Z"/><circle cx="22" cy="11" r="1"/><circle cx="22" cy="15" r="1"/><circle cx="22" cy="19" r="1"/><circle cx="22" cy="23" r="1"/><path d="M10,21a1,1,0,0,1-1-1V14a1,1,0,0,1,1.447-.895l6,3a1,1,0,0,1,0,1.79l-6,3A1,1,0,0,1,10,21Zm1-5.382v2.764L13.764,17Z"/><path d="M29,15H26a1,1,0,0,1,0-2h3a1,1,0,0,1,0,2Z"/><path d="M29,22H26a1,1,0,0,1,0-2h3a1,1,0,0,1,0,2Z"/></g></svg>